<svg width="101" height="100" viewBox="0 0 101 100" fill="none" xmlns="http://www.w3.org/2000/svg">
<path d="M95.661 90.2512H90.0275L90.5468 89.634C93.2065 86.4732 94.0335 82.2418 92.7591 78.3154L87.6695 62.6348C86.3926 58.7008 83.2319 55.7469 79.2146 54.7328L76.6854 54.0945C75.6917 52.7023 74.1297 51.7406 72.3394 51.5521L72.341 45.3068C72.3412 44.4982 71.6845 43.8428 70.8744 43.8426C70.8742 43.8426 70.8742 43.8426 70.874 43.8426C70.0639 43.8426 69.4072 44.4977 69.407 45.3061L69.4054 51.5176H66.4761L62.8475 50.6018C61.9291 50.3697 61.2455 49.6158 61.1061 48.6809L60.2725 43.0939C63.6351 40.4525 66.1262 36.8943 66.8784 32.643H68.0885C68.5499 32.643 68.994 32.5684 69.4103 32.4324L69.4087 38.4506C69.4085 39.2592 70.0652 39.9146 70.8753 39.9148H70.8757C71.6859 39.9148 72.3425 39.2598 72.3427 38.4514C72.3435 37.284 72.3476 23.607 72.3476 19.1C72.3568 8.54687 63.8011 0 53.2235 0H47.8683L47.8055 0.000195313C47.7939 0.000195313 47.7826 0.00117188 47.7708 0.00117188C37.2294 0.0533203 28.735 8.5875 28.744 19.0992C28.744 24.0154 28.741 18.9641 28.7524 51.552C26.962 51.7406 25.4001 52.7022 24.4064 54.0943L21.8772 54.7326C17.8598 55.7467 14.6992 58.7006 13.4223 62.6346L8.3327 78.3152C7.0583 82.2418 7.88526 86.473 10.5448 89.6336L11.0643 90.251H5.43081C2.73738 90.251 0.54599 92.4377 0.54599 95.1254C0.54599 97.8133 2.73718 100 5.43081 100H95.6612C98.3546 100 100.546 97.8133 100.546 95.1256C100.546 92.4379 98.3546 90.2512 95.661 90.2512V90.2512ZM84.8782 63.5365L89.9678 79.2172C90.9288 82.1777 90.3052 85.368 88.2998 87.7512L86.1965 90.2512H83.4936C83.7921 89.4512 83.9499 88.598 83.9499 87.7234C83.9499 86.0496 82.5853 84.6879 80.9079 84.6879H77.8204V57.6332C77.8204 57.5549 77.8175 57.4772 77.8145 57.3994C78.0087 57.5004 83.121 58.1225 84.8782 63.5365V63.5365ZM80.908 87.6156C80.9676 87.6156 81.0159 87.6639 81.0159 87.7232C81.0159 88.6408 80.7235 89.518 80.1907 90.251H20.9011C20.3683 89.5178 20.0759 88.6406 20.0759 87.7232C20.0759 87.6637 20.1242 87.6156 20.1837 87.6156H80.908ZM69.4113 28.44C69.386 29.1473 68.8032 29.715 68.0885 29.715H67.1089L67.1238 23.7813H68.0907C68.81 23.7813 69.396 24.3574 69.4123 25.0713L69.4113 28.44ZM43.7862 7.01836C43.7862 4.77988 45.5779 2.95273 47.7957 2.92969C47.82 2.92969 47.844 2.92793 47.8683 2.92793H53.2235C62.1763 2.92793 69.4215 10.1613 69.4136 19.0984L69.4132 20.8535C67.3961 20.8535 63.5668 20.8535 57.5636 20.8535C49.9667 20.8535 43.7864 14.6861 43.7864 7.10547V7.01836H43.7862ZM44.2397 17.1568C47.2936 21.1779 52.129 23.7813 57.5634 23.7813H64.1894L64.1738 30.0238C64.1738 34.992 61.2584 38.7674 57.9715 41.1785C57.9499 41.1906 54.0318 44.1658 50.5457 44.2627C47.3254 44.173 43.2894 41.2746 43.1232 41.1803C39.835 38.7684 36.9176 34.9906 36.9176 30.017C36.8844 22.6918 36.9167 29.7838 36.882 22.1582C36.8787 21.4094 37.4849 20.8014 38.2357 20.8014C40.8442 20.8016 43.1111 19.3201 44.2397 17.1568V17.1568ZM59.2175 51.5176H41.8743C42.3975 50.8283 42.7545 50.0078 42.8882 49.1121L43.5157 44.9062C46.177 46.4209 48.7671 47.1535 50.5146 47.1908C50.5251 47.191 50.5355 47.1912 50.5461 47.1912C50.5567 47.1912 50.567 47.191 50.5776 47.1908C52.3251 47.1535 54.9152 46.4211 57.5765 44.9062L58.204 49.1121C58.3373 50.0078 58.6943 50.8283 59.2175 51.5176ZM33.0034 32.643H34.214C34.9656 36.89 37.4524 40.4488 40.8195 43.0939L39.9859 48.6809C39.8465 49.6158 39.1628 50.3697 38.2447 50.6016L34.6157 51.5174H31.6864L31.6815 32.4324C32.098 32.5686 32.5419 32.643 33.0034 32.643V32.643ZM31.6805 28.44L31.6797 25.0713C31.696 24.3574 32.282 23.7813 33.0013 23.7813H33.9555L33.9825 29.715H33.0034C32.2886 29.7152 31.7057 29.1473 31.6805 28.44ZM41.4147 4.26191C41.0532 5.10898 40.8522 6.04062 40.8522 7.01816C40.872 7.21875 40.7138 9.99785 42.0675 13.3373V14.0502C42.0675 16.1584 40.3486 17.8736 38.2359 17.8736C36.3068 17.8736 34.6981 19.1348 34.1512 20.8533H33.0013C32.5396 20.8533 32.0952 20.9279 31.6787 21.0643L31.6781 19.0975C31.6723 12.3916 35.7315 6.72754 41.4147 4.26191V4.26191ZM11.1242 79.2174L16.2138 63.5367C17.9702 58.125 23.0796 57.5023 23.2774 57.3996C23.2745 57.4773 23.2716 57.5549 23.2716 57.6334V66.3094C23.2716 67.118 23.9284 67.7732 24.7386 67.7732C25.5489 67.7732 26.2055 67.118 26.2055 66.3094V57.6334C26.2055 55.8756 27.6387 54.4455 29.4002 54.4455H71.6919C73.4535 54.4455 74.8866 55.8756 74.8866 57.6334V84.6879H26.2054V73.1531C26.2054 72.3445 25.5485 71.6893 24.7384 71.6893C23.928 71.6893 23.2714 72.3445 23.2714 73.1531V84.6879H20.1839C18.5065 84.6879 17.1419 86.0496 17.1419 87.7234C17.1419 88.598 17.2999 89.4514 17.5981 90.2512H14.8955L12.792 87.751C10.7868 85.3682 10.1632 82.1777 11.1242 79.2174V79.2174ZM95.661 97.0721H5.43081C4.35508 97.0721 3.48017 96.1988 3.48017 95.1256C3.48017 94.0521 4.35528 93.1791 5.43081 93.1791H95.6612C96.7369 93.1791 97.6118 94.0523 97.6118 95.1256C97.6118 96.1988 96.7367 97.0721 95.661 97.0721Z" fill="#9987C5"/>
<path d="M95.661 90.2512H90.0275L90.5468 89.634C93.2065 86.4732 94.0335 82.2418 92.7591 78.3154L87.6695 62.6348C86.3926 58.7008 83.2319 55.7469 79.2146 54.7328L76.6854 54.0945C75.6917 52.7023 74.1297 51.7406 72.3394 51.5521L72.341 45.3068C72.3412 44.4982 71.6845 43.8428 70.8744 43.8426C70.8742 43.8426 70.8742 43.8426 70.874 43.8426C70.0639 43.8426 69.4072 44.4977 69.407 45.3061L69.4054 51.5176H66.4761L62.8475 50.6018C61.9291 50.3697 61.2455 49.6158 61.1061 48.6809L60.2725 43.0939C63.6351 40.4525 66.1262 36.8943 66.8784 32.643H68.0885C68.5499 32.643 68.994 32.5684 69.4103 32.4324L69.4087 38.4506C69.4085 39.2592 70.0652 39.9146 70.8753 39.9148H70.8757C71.6859 39.9148 72.3425 39.2598 72.3427 38.4514C72.3435 37.284 72.3476 23.607 72.3476 19.1C72.3568 8.54687 63.8011 0 53.2235 0H47.8683L47.8055 0.000195313C47.7939 0.000195313 47.7826 0.00117188 47.7708 0.00117188C37.2294 0.0533203 28.735 8.5875 28.744 19.0992C28.744 24.0154 28.741 18.9641 28.7524 51.552C26.962 51.7406 25.4001 52.7022 24.4064 54.0943L21.8772 54.7326C17.8598 55.7467 14.6992 58.7006 13.4223 62.6346L8.3327 78.3152C7.0583 82.2418 7.88526 86.473 10.5448 89.6336L11.0643 90.251H5.43081C2.73738 90.251 0.54599 92.4377 0.54599 95.1254C0.54599 97.8133 2.73718 100 5.43081 100H95.6612C98.3546 100 100.546 97.8133 100.546 95.1256C100.546 92.4379 98.3546 90.2512 95.661 90.2512V90.2512ZM84.8782 63.5365L89.9678 79.2172C90.9288 82.1777 90.3052 85.368 88.2998 87.7512L86.1965 90.2512H83.4936C83.7921 89.4512 83.9499 88.598 83.9499 87.7234C83.9499 86.0496 82.5853 84.6879 80.9079 84.6879H77.8204V57.6332C77.8204 57.5549 77.8175 57.4772 77.8145 57.3994C78.0087 57.5004 83.121 58.1225 84.8782 63.5365V63.5365ZM80.908 87.6156C80.9676 87.6156 81.0159 87.6639 81.0159 87.7232C81.0159 88.6408 80.7235 89.518 80.1907 90.251H20.9011C20.3683 89.5178 20.0759 88.6406 20.0759 87.7232C20.0759 87.6637 20.1242 87.6156 20.1837 87.6156H80.908ZM69.4113 28.44C69.386 29.1473 68.8032 29.715 68.0885 29.715H67.1089L67.1238 23.7813H68.0907C68.81 23.7813 69.396 24.3574 69.4123 25.0713L69.4113 28.44ZM43.7862 7.01836C43.7862 4.77988 45.5779 2.95273 47.7957 2.92969C47.82 2.92969 47.844 2.92793 47.8683 2.92793H53.2235C62.1763 2.92793 69.4215 10.1613 69.4136 19.0984L69.4132 20.8535C67.3961 20.8535 63.5668 20.8535 57.5636 20.8535C49.9667 20.8535 43.7864 14.6861 43.7864 7.10547V7.01836H43.7862ZM44.2397 17.1568C47.2936 21.1779 52.129 23.7813 57.5634 23.7813H64.1894L64.1738 30.0238C64.1738 34.992 61.2584 38.7674 57.9715 41.1785C57.9499 41.1906 54.0318 44.1658 50.5457 44.2627C47.3254 44.173 43.2894 41.2746 43.1232 41.1803C39.835 38.7684 36.9176 34.9906 36.9176 30.017C36.8844 22.6918 36.9167 29.7838 36.882 22.1582C36.8787 21.4094 37.4849 20.8014 38.2357 20.8014C40.8442 20.8016 43.1111 19.3201 44.2397 17.1568V17.1568ZM59.2175 51.5176H41.8743C42.3975 50.8283 42.7545 50.0078 42.8882 49.1121L43.5157 44.9062C46.177 46.4209 48.7671 47.1535 50.5146 47.1908C50.5251 47.191 50.5355 47.1912 50.5461 47.1912C50.5567 47.1912 50.567 47.191 50.5776 47.1908C52.3251 47.1535 54.9152 46.4211 57.5765 44.9062L58.204 49.1121C58.3373 50.0078 58.6943 50.8283 59.2175 51.5176ZM33.0034 32.643H34.214C34.9656 36.89 37.4524 40.4488 40.8195 43.0939L39.9859 48.6809C39.8465 49.6158 39.1628 50.3697 38.2447 50.6016L34.6157 51.5174H31.6864L31.6815 32.4324C32.098 32.5686 32.5419 32.643 33.0034 32.643V32.643ZM31.6805 28.44L31.6797 25.0713C31.696 24.3574 32.282 23.7813 33.0013 23.7813H33.9555L33.9825 29.715H33.0034C32.2886 29.7152 31.7057 29.1473 31.6805 28.44ZM41.4147 4.26191C41.0532 5.10898 40.8522 6.04062 40.8522 7.01816C40.872 7.21875 40.7138 9.99785 42.0675 13.3373V14.0502C42.0675 16.1584 40.3486 17.8736 38.2359 17.8736C36.3068 17.8736 34.6981 19.1348 34.1512 20.8533H33.0013C32.5396 20.8533 32.0952 20.9279 31.6787 21.0643L31.6781 19.0975C31.6723 12.3916 35.7315 6.72754 41.4147 4.26191V4.26191ZM11.1242 79.2174L16.2138 63.5367C17.9702 58.125 23.0796 57.5023 23.2774 57.3996C23.2745 57.4773 23.2716 57.5549 23.2716 57.6334V66.3094C23.2716 67.118 23.9284 67.7732 24.7386 67.7732C25.5489 67.7732 26.2055 67.118 26.2055 66.3094V57.6334C26.2055 55.8756 27.6387 54.4455 29.4002 54.4455H71.6919C73.4535 54.4455 74.8866 55.8756 74.8866 57.6334V84.6879H26.2054V73.1531C26.2054 72.3445 25.5485 71.6893 24.7384 71.6893C23.928 71.6893 23.2714 72.3445 23.2714 73.1531V84.6879H20.1839C18.5065 84.6879 17.1419 86.0496 17.1419 87.7234C17.1419 88.598 17.2999 89.4514 17.5981 90.2512H14.8955L12.792 87.751C10.7868 85.3682 10.1632 82.1777 11.1242 79.2174V79.2174ZM95.661 97.0721H5.43081C4.35508 97.0721 3.48017 96.1988 3.48017 95.1256C3.48017 94.0521 4.35528 93.1791 5.43081 93.1791H95.6612C96.7369 93.1791 97.6118 94.0523 97.6118 95.1256C97.6118 96.1988 96.7367 97.0721 95.661 97.0721Z" fill="url(#paint0_linear)"/>
<path d="M50.5459 76.4313C54.2501 76.4313 57.2636 73.424 57.2636 69.7279C57.2636 66.0318 54.2501 63.0244 50.5459 63.0244C46.8417 63.0244 43.8283 66.0316 43.8283 69.7277C43.8283 73.4238 46.8417 76.4313 50.5459 76.4313V76.4313ZM50.5459 65.9523C52.6322 65.9523 54.3296 67.6459 54.3296 69.7279C54.3296 71.81 52.6322 73.5035 50.5459 73.5035C48.4596 73.5035 46.7623 71.81 46.7623 69.7279C46.7623 67.6459 48.4596 65.9523 50.5459 65.9523Z" fill="#9987C5"/>
<path d="M50.5459 76.4313C54.2501 76.4313 57.2636 73.424 57.2636 69.7279C57.2636 66.0318 54.2501 63.0244 50.5459 63.0244C46.8417 63.0244 43.8283 66.0316 43.8283 69.7277C43.8283 73.4238 46.8417 76.4313 50.5459 76.4313V76.4313ZM50.5459 65.9523C52.6322 65.9523 54.3296 67.6459 54.3296 69.7279C54.3296 71.81 52.6322 73.5035 50.5459 73.5035C48.4596 73.5035 46.7623 71.81 46.7623 69.7279C46.7623 67.6459 48.4596 65.9523 50.5459 65.9523Z" fill="url(#paint1_linear)"/>
<defs>
<linearGradient id="paint0_linear" x1="50.546" y1="0" x2="50.546" y2="100" gradientUnits="userSpaceOnUse">
<stop stop-color="#94B6DC"/>
<stop offset="1" stop-color="white" stop-opacity="0"/>
</linearGradient>
<linearGradient id="paint1_linear" x1="50.5459" y1="63.0244" x2="50.5459" y2="76.4313" gradientUnits="userSpaceOnUse">
<stop stop-color="#94B6DC"/>
<stop offset="1" stop-color="white" stop-opacity="0"/>
</linearGradient>
</defs>
</svg>
